<svg width="14" height="15" viewBox="0 0 14 15" fill="none" xmlns="http://www.w3.org/2000/svg">
<path d="M11.1839 3.02828H10.1634C10.0539 2.21726 9.6576 1.47228 9.04614 0.92837C8.43468 0.384462 7.64859 0.0776246 6.83035 0.0634766C6.01211 0.0776246 5.22602 0.384462 4.61456 0.92837C4.00311 1.47228 3.60675 2.21726 3.49735 3.02828H2.47735C1.91614 3.02865 1.37801 3.2517 0.981099 3.64846C0.584187 4.04522 0.360934 4.58327 0.360352 5.14448V12.86C0.360854 13.4211 0.583956 13.9591 0.980697 14.356C1.37744 14.7528 1.91541 14.976 2.47655 14.9767H11.1836C11.7448 14.9762 12.2829 14.753 12.6798 14.3562C13.0767 13.9593 13.2998 13.4212 13.3004 12.86V5.14448C13.2998 4.58335 13.0766 4.04538 12.6798 3.64863C12.283 3.25189 11.745 3.02878 11.1839 3.02828ZM6.83035 1.16308C7.35776 1.17454 7.86547 1.36565 8.26954 1.7048C8.6736 2.04395 8.94983 2.51084 9.05255 3.02828H4.60815C4.71087 2.51084 4.9871 2.04395 5.39117 1.7048C5.79523 1.36565 6.30294 1.17454 6.83035 1.16308ZM12.2004 12.86C12.2001 13.1296 12.0929 13.388 11.9023 13.5787C11.7117 13.7693 11.4533 13.8767 11.1838 13.8771H2.47685C2.20729 13.8766 1.94891 13.7693 1.75836 13.5786C1.56781 13.388 1.46064 13.1295 1.46035 12.86V5.14448C1.46067 4.87496 1.56788 4.61656 1.75846 4.42598C1.94904 4.2354 2.20743 4.12819 2.47695 4.12788H11.184C11.4534 4.12825 11.7118 4.23548 11.9023 4.42605C12.0929 4.61663 12.2 4.87499 12.2004 5.14448V12.86Z" fill="white" fill-opacity="0.8"/>
</svg>
