<svg width="15" height="15" viewBox="0 0 15 15" fill="none" xmlns="http://www.w3.org/2000/svg">
<path d="M13.9886 13.2022L10.1186 9.3322C10.8196 8.4032 11.2406 7.2512 11.2406 6.0002C11.2406 2.9402 8.75163 0.450195 5.69063 0.450195C2.63063 0.450195 0.140625 2.9402 0.140625 6.0002C0.140625 9.0612 2.63063 11.5502 5.69063 11.5502C6.94163 11.5502 8.09363 11.1292 9.02262 10.4282L12.8926 14.2982C13.0436 14.4492 13.2426 14.5262 13.4406 14.5262C13.6386 14.5262 13.8366 14.4502 13.9886 14.2982C14.2916 13.9952 14.2916 13.5052 13.9886 13.2022ZM1.24062 6.0002C1.24062 3.5462 3.23763 1.5502 5.69063 1.5502C8.14462 1.5502 10.1406 3.5472 10.1406 6.0002C10.1406 8.4532 8.14462 10.4502 5.69063 10.4502C3.23663 10.4502 1.24062 8.4542 1.24062 6.0002Z" fill="white" fill-opacity="0.8"/>
</svg>
